<svg xmlns="http://www.w3.org/2000/svg" viewBox="0 0 705.67 465.129"><path fill="#2f2e41" d="M544.166 72.31c-1.26-5.81-1.63-1.53-4.37-6.8 1.88 6.81-1.59 4.58-6.2 9.92-32.4 5.08-35.86-11.69-47.85-11.35-2.05 0 1.912-11.093 1.902-13.153-4.635-7.577-2.907-29.025 1.928-23.227 0-15.3 12.4-27.7 27.7-27.7 14.1 0 25.74 10.54 27.47 24.17.58 4.56 1.3 9.09 2.16 13.6l3.99 13.54c5.61 10.817 2.957 19.222-6.73 21Z"/><circle cx="510.435" cy="31.471" r="20.309" fill="#a0616a"/><circle cx="446.967" cy="436.718" r="26.283" fill="#e6e6e6"/><circle cx="198.967" cy="88.718" r="11.868" fill="#6c63ff"/><path fill="#3f3d56" d="M199.008 165.586h-.041c-6.944-.275-13.601-1.22-19.824-2.809l.495-1.937c6.087 1.554 12.604 2.478 19.368 2.747l.002 1.999Zm19.891-2.61-.517-1.932a74.484 74.484 0 0 0 18.046-7.49l1.002 1.73a76.448 76.448 0 0 1-18.53 7.691Zm-58.417-7.53a71.897 71.897 0 0 1-16.049-12.045l1.413-1.415a69.907 69.907 0 0 0 15.602 11.71l-.966 1.75Zm92.85-12.387-1.413-1.414a75.156 75.156 0 0 0 11.904-15.5l1.731 1.001a77.148 77.148 0 0 1-12.221 15.913Zm-120.981-15.686c-3.23-5.798-5.711-12.075-7.377-18.66l1.939-.49c1.623 6.415 4.04 12.531 7.185 18.176l-1.747.974Zm140.886-18.765-1.933-.517a75.082 75.082 0 0 0 2.531-19.374v-.177h2v.17a77.11 77.11 0 0 1-2.598 19.898ZM123.08 88.788l-.58-.028c0-6.737.82-13.413 2.436-19.862l1.94.486a79.65 79.65 0 0 0-2.376 19.354l-1.42.05Zm148.178-19.615a74.445 74.445 0 0 0-7.521-18.032l1.728-1.005a76.395 76.395 0 0 1 7.724 18.516l-1.93.52ZM134.02 51.193l-1.75-.97a72.533 72.533 0 0 1 12.039-16.057l1.417 1.411a70.53 70.53 0 0 0-11.706 15.615ZM251.8 35.671a75.18 75.18 0 0 0-15.52-11.877l.997-1.733a77.184 77.184 0 0 1 15.935 12.193l-1.411 1.417Zm-90.504-11.847-.972-1.748c5.72-3.18 11.993-5.66 18.645-7.374l.499 1.936c-6.487 1.672-12.601 4.09-18.172 7.186Zm56.916-7.48a75.095 75.095 0 0 0-19.243-2.495l-.095.005-.085-1.998.137-.006h.01c6.736 0 13.379.862 19.788 2.561l-.513 1.934Z"/><path fill="#a0616a" d="M544.573 179.623H471.98c6.085-13.577 9.826-26.508 3.978-36.793l65.09-3.829c-4 23 4 32 3.525 40.622ZM544.828 440.764l-9.714.229-5.415-43.641 14.335-.339.794 43.751z"/><path fill="#2f2e41" d="M511.5 461.03c0 1.64 1.165 2.971 2.602 2.971h19.28s1.898-7.627 9.635-10.91l.533 10.91h9.947l-1.205-17.542s2.66-9.385-2.865-14.183c-5.526-4.797-1.05-4.13-1.05-4.13l-2.174-10.856-15.03 1.767-.11 17.043-7.295 16.918-10.699 5.284c-.952.47-1.568 1.543-1.568 2.728Z"/><path fill="#a0616a" d="m454.564 396.135-9.668.977-8.764-43.093 14.267-1.444 4.165 43.56z"/><path fill="#2f2e41" d="M422.899 418.91c.126 1.637 1.39 2.873 2.822 2.763l19.224-1.487s1.304-7.751 8.764-11.62l1.373 10.835 9.917-.767-2.554-17.397s1.929-9.562-3.95-13.919c-5.88-4.357-1.366-4.036-1.366-4.036l-3.005-10.658-14.849 2.922 1.204 17-5.967 17.43-10.26 6.095c-.913.542-1.444 1.658-1.353 2.84ZM537.82 172.179l7.135 2.378c11.155 20.604 15.885 47.964 15.258 80.957L547.54 403.7h-20.735L511.63 238.615l-8.05 6.757-46.707 39.205-1.423 78.122-19.577 1.996-18.43-82.23 55.46-108.628 64.917-1.658Z"/><path fill="#e6e6e6" d="M551.273 74.657c-1.49-4.467-21.59-6.7-21.59-6.7L523.729 55.3l-22.333 1.489-12.656 11.167s-11.91 2.233-13.4 6.7-.291 66.344-.291 66.344l-1.198 20.756 67-1.49.198-17.266s11.714-63.878 10.225-68.344Z"/><circle cx="578.073" cy="219.823" r="48.389" fill="#6c63ff"/><path fill="#fff" d="M578.072 237.409c-.75 0-1.452-.378-1.866-1.008l-12.283-18.702a2.233 2.233 0 1 1 3.733-2.452l10.284 15.659 15.688-27.452a2.232 2.232 0 1 1 3.878 2.216l-17.494 30.613a2.234 2.234 0 0 1-1.87 1.125h-.07Z"/><g fill="#a0616a"><path d="m596.048 145.001 7.495 21.306 3.948 40.388-9.308.117-9.332-34.806-17.989-45.025 25.186 18.02z"/><ellipse cx="603.701" cy="213.743" rx="6.142" ry="10.344" transform="rotate(-10.858 603.701 213.743)"/></g><path fill="#e6e6e6" d="M541.028 71.737s13.23-5.144 19.202 6.868 38.108 65.474 38.108 65.474l2.366 6.421-18.868 8.302-2.918-7.92s-10.47 3.964-11.133-2.14c-.254-2.344-19.116-29.039-23.957-42.819-7.758-22.084-2.8-34.186-2.8-34.186Z"/><path fill="#f2f2f2" d="M633.346 447.494c2.066.13 3.207-2.438 1.644-3.933l-.155-.619.062-.148c2.089-4.982 9.17-4.947 11.241.042 1.839 4.428 4.18 8.864 4.756 13.546a18.03 18.03 0 0 1-.317 6.2c4.308-9.41 6.576-19.686 6.576-30.02 0-2.597-.143-5.194-.433-7.784a71.63 71.63 0 0 0-.995-6.31c-2.306-11.277-7.298-22.018-14.5-30.99-3.462-1.892-6.35-4.85-8.093-8.396-.626-1.279-1.117-2.655-1.35-4.056.394.051 1.486-5.949 1.189-6.317.549-.833 1.531-1.247 2.131-2.06 2.982-4.044 7.091-3.338 9.236 2.157 4.582 2.313 4.627 6.148 1.815 9.837-1.789 2.347-2.034 5.522-3.604 8.035.162.206.33.406.491.613a73.59 73.59 0 0 1 7.681 12.169c-.61-4.766.29-10.508 1.826-14.21 1.749-4.217 5.025-7.769 7.91-11.415 3.467-4.38 10.574-2.468 11.185 3.083l.017.162a20.88 20.88 0 0 0-1.258.77c-2.34 1.547-1.531 5.173 1.24 5.601l.063.01a30.635 30.635 0 0 1-.807 4.58c3.702 14.315-4.29 19.53-15.701 19.764-.252.129-.498.258-.75.38a73.182 73.182 0 0 1 2.765 9.98 73.858 73.858 0 0 1 1.279 9.048c.297 3.83.27 7.68-.052 11.504l.02-.136c.82-4.211 3.106-8.145 6.426-10.87 4.946-4.063 11.933-5.559 17.268-8.824 2.568-1.572 5.86.459 5.411 3.437l-.021.142c-.795.323-1.57.698-2.32 1.118a20.93 20.93 0 0 0-1.258.77c-2.34 1.547-1.53 5.173 1.241 5.601l.063.01.13.02a30.653 30.653 0 0 1-5.64 8.829c-2.314 12.497-12.255 13.682-22.89 10.043h-.006a75.094 75.094 0 0 1-5.044 14.726h-18.02c-.065-.2-.123-.407-.182-.607 1.667.104 3.346.007 4.987-.297-1.337-1.64-2.674-3.294-4.011-4.935a1.12 1.12 0 0 1-.084-.096c-.678-.84-1.363-1.673-2.041-2.513a29.989 29.989 0 0 1 .878-7.64v-.001ZM69.001 455.003c-1.102.069-1.71-1.3-.877-2.098l.083-.33-.033-.078c-1.114-2.657-4.89-2.639-5.995.022-.98 2.361-2.229 4.727-2.536 7.224a9.615 9.615 0 0 0 .169 3.306 38.547 38.547 0 0 1-3.507-16.01c0-1.384.076-2.769.231-4.15.127-1.13.303-2.253.53-3.365 1.23-6.014 3.893-11.742 7.733-16.527 1.846-1.009 3.386-2.586 4.316-4.477.334-.683.596-1.416.72-2.164-.21.028-.792-3.172-.634-3.368-.293-.445-.817-.665-1.136-1.099-1.59-2.156-3.782-1.78-4.926 1.15-2.444 1.234-2.467 3.28-.968 5.246.954 1.252 1.085 2.945 1.922 4.285-.086.11-.176.217-.262.327a39.245 39.245 0 0 0-4.096 6.49c.326-2.542-.155-5.604-.974-7.578-.932-2.25-2.68-4.143-4.218-6.088-1.849-2.335-5.64-1.316-5.965 1.645l-.009.086c.229.129.452.266.671.41 1.248.825.817 2.76-.662 2.988l-.033.005c.083.823.224 1.64.43 2.442-1.974 7.634 2.288 10.415 8.374 10.54.134.069.265.138.4.203a39.03 39.03 0 0 0-1.475 5.322 37.993 37.993 0 0 0-.654 10.96l-.01-.072c-.438-2.246-1.657-4.344-3.428-5.797-2.637-2.167-6.363-2.965-9.209-4.706-1.37-.838-3.125.245-2.886 1.833l.012.076a11.027 11.027 0 0 1 1.908 1.006c1.248.825.816 2.76-.662 2.988l-.033.005-.07.01a16.348 16.348 0 0 0 3.008 4.709c1.234 6.664 6.536 7.297 12.207 5.356h.003c.62 2.7 1.526 5.339 2.69 7.853h9.61c.035-.107.066-.217.097-.324a10.92 10.92 0 0 1-2.66-.158c.714-.875 1.427-1.757 2.14-2.632a.596.596 0 0 0 .045-.051c.361-.448.726-.892 1.088-1.34a15.994 15.994 0 0 0-.468-4.075Z"/><path fill="#ccc" d="M0 463.94c0 .66.53 1.19 1.19 1.19h703.29c.66 0 1.19-.53 1.19-1.19 0-.66-.53-1.19-1.19-1.19H1.19c-.66 0-1.19.53-1.19 1.19Z"/><g fill="#a0616a"><path d="m452.048 157.001-.244 20.25 7.134 39.949 8.992-2.407-.44-36.033 5.129-48.214-20.571 26.455z"/><ellipse cx="464.494" cy="222.958" rx="6.142" ry="10.344" transform="rotate(-4.849 464.494 222.958)"/></g><path fill="#e6e6e6" d="M486.382 69.288s-14.129-1.37-16.625 11.81c-2.497 13.18-18.96 73.346-18.96 73.346l-.54 6.822 20.411 2.883.666-8.414s11.152.981 10.138-5.073 4.91-81.374 4.91-81.374Z"/><path fill="#2f2e41" d="M483.019 29.354c-.277-14.525 9.201-27.036 21.911-21.911h4.135c12.095.013 32.77 17.122 24.77 29.122-11-9-7.507 36.28-18.913 38.81-.095 1.157-3.513-.429-3.57-1.587l11.72-35.2a70.849 70.849 0 0 0-3.813-17.165l-.337 12.953-4.775-4.608c-3.89.1-5.072-6.433-11.456-1.72s-13.19.153-19.672 1.72v-.414Z"/></svg>